# xmcd CD database file
#
# Track frame offsets:
#	151
#	31377
#	58715
#	87323
#	103644
#	120335
#	148792
#	169896
#	189574
#	207721
#	222755
#	245793
#	266266
#
# Disc length: 4161 seconds
#
# Revision: 0
# Processed by: cddbd v1.5.2PL0 Copyright (c) Steve Scherf et al.
# Submitted via: CDex 1.50beta10
#
DISCID=c2103f0d
DTITLE=Best Of Jazz 10(VA - Jazzらセ里h范) - NO里h10
DYEAR=1900
DGENRE=Jazz
TTITLE0=IF IT'S LOVE
TTITLE1=TIME AFTER TIME
TTITLE2=I WILL WAIT FOR YOU
TTITLE3=SOMETIMES I'M HAPPY
TTITLE4=ORANGE COLORED SKY
TTITLE5=ON THE STREET WHERE YOU LIFE
TTITLE6=堵?利
TTITLE7=g?BEST
TTITLE8=t?`??
TTITLE9=AFTER THERAIN
TTITLE10=JENGA
TTITLE11=i记?
TTITLE12=PORTRAIT IN BLUE
EXTD=
EXTT0=
EXTT1=
EXTT2=
EXTT3=
EXTT4=
EXTT5=
EXTT6=
EXTT7=
EXTT8=
EXTT9=
EXTT10=
EXTT11=
EXTT12=
PLAYORDER=
